<svg width="99" height="30" viewBox="0 0 99 30" fill="none" xmlns="http://www.w3.org/2000/svg">
<path d="M1.33398 24.0723C0.607422 24.0488 0.554688 23.7793 1.17578 23.2637C1.28125 23.1816 1.35742 23.1113 1.4043 23.0527C2.37695 22.1621 3.04492 21.3184 3.4082 20.5215C3.56055 20.1465 5.01367 15.4707 7.76758 6.49414L7.78516 6.47656V6.44141C7.82031 6.3125 7.89648 6.00195 8.01367 5.50977C8.43555 3.54102 8.80469 2.36328 9.12109 1.97656C9.44922 1.58984 9.73047 1.39648 9.96484 1.39648C10.5273 1.44336 10.832 1.61328 10.8789 1.90625C10.8789 1.96484 10.8262 2.19336 10.7207 2.5918C9.81836 5.61523 9.36719 7.91797 9.36719 9.5C9.36719 9.71094 9.46094 9.91602 9.64844 10.1152C9.83594 10.3145 9.94727 10.4141 9.98242 10.4141C10.2988 10.3906 10.8965 9.34766 11.7754 7.28516C12.666 5.21094 13.2285 3.94531 13.4629 3.48828C13.6973 3.01953 13.8965 2.78516 14.0605 2.78516C14.5293 2.78516 14.8398 2.85547 14.9922 2.99609C15.1562 3.125 15.2383 3.21875 15.2383 3.27734C15.25 3.32422 15.1328 3.67578 14.8867 4.33203C14.6406 4.97656 13.8262 7.56641 12.4434 12.1016C11.0723 16.625 10.2227 19.6074 9.89453 21.0488C9.57812 22.4902 9.41992 23.5566 9.41992 24.248C9.43164 24.4707 9.61328 24.6992 9.96484 24.9336C10.3867 25.2148 10.5918 25.4785 10.5801 25.7246C10.5684 26.4863 10.3398 26.873 9.89453 26.8848C8.79297 26.873 8.24219 25.8418 8.24219 23.791C8.24219 22.1387 8.59961 20.1055 9.31445 17.6914C10.1582 14.8438 10.5801 13.3262 10.5801 13.1387C10.416 13.5605 10.1641 13.9121 9.82422 14.1934C9.49609 14.4746 9.20898 14.6152 8.96289 14.6152C8.72852 14.6152 8.45312 14.4219 8.13672 14.0352C7.83203 13.6484 7.67383 13.332 7.66211 13.0859C7.65039 12.8398 7.65039 12.6758 7.66211 12.5938C7.43945 13.0625 7.00586 14.4688 6.36133 16.8125C5.7168 19.1562 5.04883 20.8848 4.35742 21.998C3.50195 23.3809 2.49414 24.0723 1.33398 24.0723ZM20.3887 9.81641C20.998 9.81641 21.8066 9.6582 22.8145 9.3418C23.834 9.02539 24.5371 8.88477 24.9238 8.91992C25.3223 8.95508 25.5859 9.11328 25.7148 9.39453C25.8555 9.67578 25.8379 9.95117 25.6621 10.2207C25.4863 10.4785 25.1113 10.625 24.5371 10.6602H21.7773C21.2148 10.6602 20.8574 10.8418 20.7051 11.2051C20.6816 11.2285 20.5703 11.832 20.3711 13.0156C20.1836 14.1992 20.0723 14.873 20.0371 15.0371C19.4629 17.8379 18.666 19.9707 17.6465 21.4355L17.6289 21.4531C16.5742 22.9766 15.7363 23.7383 15.1152 23.7383C14.3418 23.7031 13.9258 23.1758 13.8672 22.1562C13.9258 20.8438 14.4941 18.5352 15.5723 15.2305C16.6504 11.9141 17.5469 9.78125 18.2617 8.83203C18.4609 8.5625 18.6836 8.42773 18.9297 8.42773C19.1875 8.42773 19.3516 8.43359 19.4219 8.44531C19.6562 8.49219 19.7734 8.73242 19.7734 9.16602C19.7852 9.58789 19.9902 9.80469 20.3887 9.81641ZM19.1582 10.6602C18.666 10.6602 17.9512 12.125 17.0137 15.0547C16.0762 17.9844 15.5957 19.666 15.5723 20.0996C15.5605 20.5215 15.6016 20.7324 15.6953 20.7324C16.1289 20.7324 16.8789 19.6777 17.9453 17.5684C19.0117 15.4473 19.5449 13.6309 19.5449 12.1191C19.4863 11.2285 19.3574 10.7422 19.1582 10.6602ZM26.7344 10.2031L26.9805 10.168C27.5898 10.1797 27.8887 10.3496 27.877 10.6777C27.8652 10.8184 27.8301 10.9648 27.7715 11.1172C27.7129 11.2578 27.5137 11.6914 27.1738 12.418C26.752 13.3203 26.582 13.9414 26.6641 14.2812V14.3867L27.9648 12.418C28.8086 11.1406 29.4355 10.2148 29.8457 9.64062C29.9629 9.48828 30.1621 9.41211 30.4434 9.41211C30.7246 9.41211 30.9531 9.48828 31.1289 9.64062C31.3164 9.78125 31.416 9.89258 31.4277 9.97461L31.3223 10.2383C29.2129 15.3594 28.1582 19.0156 28.1582 21.207C28.1582 22.1211 28.457 22.666 29.0547 22.8418C29.6055 22.9941 30.168 22.8301 30.7422 22.3496C32.3477 21.0605 33.7832 19.3906 35.0488 17.3398L35.3828 16.7773C35.5 16.5898 35.6816 16.4785 35.9277 16.4434C36.2441 16.4434 36.4023 16.6133 36.4023 16.9531C36.4023 17.5625 35.7285 18.6582 34.3809 20.2402C33.0449 21.8105 32.0488 22.8418 31.3926 23.334C30.748 23.8262 30.0391 24.0723 29.2656 24.0723C28.5039 24.0723 27.877 23.6152 27.3848 22.7012C27.0449 22.0684 26.875 21.3359 26.875 20.5039C26.875 19.6719 27.0684 18.5645 27.4551 17.1816C27.8535 15.7871 28.0703 14.9492 28.1055 14.668C28.1406 14.3867 28.1523 14.2285 28.1406 14.1934C27.5898 14.9082 26.957 15.9102 26.2422 17.1992L24.8359 19.6777C24.625 20.0176 24.4141 20.1875 24.2031 20.1875C23.6172 20.1875 23.3242 19.8301 23.3242 19.1152C23.3242 18.7871 23.5527 18.1602 24.0098 17.2344C24.4668 16.3086 24.6953 15.6406 24.6953 15.2305C24.5312 15.5 24.25 16.0098 23.8516 16.7598C22.9844 18.3887 21.8418 19.9121 20.4238 21.3301C19.8848 21.8574 19.3809 22.1738 18.9121 22.2793C18.2207 22.1973 18.0215 22.0156 18.3145 21.7344C19.1113 20.9609 19.7559 20.2695 20.248 19.6602C21.2793 18.3828 22.0176 16.918 22.4629 15.2656C22.9199 13.6016 23.1777 12.6289 23.2363 12.3477C23.2949 12.0664 23.4062 11.6094 23.5703 10.9766L23.9219 9.72852C24.0977 8.97852 24.2969 8.50391 24.5195 8.30469C24.7539 8.10547 25.0234 8.00586 25.3281 8.00586C25.9023 8.00586 26.1895 8.19336 26.1895 8.56836C26.1895 8.91992 25.7441 10.0098 24.8535 11.8379C23.9629 13.6543 23.418 14.8438 23.2188 15.4062C23.2891 15.3242 23.4941 15.0137 23.834 14.4746C24.1738 13.9355 24.373 13.6191 24.4316 13.5254C24.502 13.4316 24.6309 13.2207 24.8184 12.8926C25.8145 11.0996 26.4531 10.2031 26.7344 10.2031ZM43.1523 11.5215C41.2773 11.8379 39.6426 13.0684 38.248 15.2129C36.8887 17.2988 36.1738 19.3613 36.1035 21.4004C38.7871 17.8613 41.1367 14.5684 43.1523 11.5215ZM42.3438 10.0273L43.3809 10.168C43.5449 10.168 43.7148 10.0742 43.8906 9.88672C44.0781 9.69922 44.3125 9.60547 44.5938 9.60547C44.8867 9.60547 45.1152 9.68164 45.2793 9.83398C45.4551 9.98633 45.543 10.1211 45.543 10.2383C45.543 10.3438 45.4844 10.5254 45.3672 10.7832C45.25 11.041 45.1797 11.2109 45.1562 11.293C43.5977 16.1797 42.8184 19.2969 42.8184 20.6445C42.8301 21.1133 42.9355 21.3535 43.1348 21.3652C43.8496 21.3652 44.9688 20.4277 46.4922 18.5527C47.5117 17.2988 48.168 16.3789 48.4609 15.793C48.7656 15.207 49.0059 14.8965 49.1816 14.8613C49.2168 14.8613 49.2461 14.8555 49.2695 14.8438C49.4805 14.8672 49.5918 14.9902 49.6035 15.2129C49.6035 15.6348 49.1172 16.584 48.1445 18.0605C46.0703 21.2246 44.2773 22.8066 42.7656 22.8066C41.6758 22.8066 41.1309 22.0449 41.1309 20.5215C41.1309 19.7949 41.2773 18.8926 41.5703 17.8145C41.8633 16.7246 42.0391 16.0449 42.0977 15.7754C41.8281 16.127 40.9258 17.4043 39.3906 19.6074C37.8555 21.8105 36.7539 23.1113 36.0859 23.5098C35.875 23.627 35.6934 23.6914 35.541 23.7031C34.873 23.7031 34.3867 23.4395 34.082 22.9121C33.9414 22.6543 33.8711 22.2852 33.8711 21.8047C33.8594 21.3125 34.2168 20.1875 34.9434 18.4297C36.1152 15.5938 37.4453 13.4082 38.9336 11.873C40.1055 10.6777 41.2422 10.0625 42.3438 10.0273ZM51.2734 20.1875C51.2852 20.5742 51.4141 20.7793 51.6602 20.8027C51.8359 20.8027 52.0527 20.6797 52.3105 20.4336C53.0957 19.6719 53.9629 18.1777 54.9121 15.9512C55.873 13.7246 56.3535 12.2598 56.3535 11.5566C56.3418 11.3691 56.2422 11.2578 56.0547 11.2227C55.6914 11.2227 55.334 11.3164 54.9824 11.5039C53.834 12.1367 52.8672 13.6602 52.082 16.0742C51.543 17.7266 51.2734 19.0977 51.2734 20.1875ZM50.7109 24.0723C49.9492 24.0723 49.5625 23.1406 49.5508 21.2773C49.5508 20.4922 49.6914 19.3672 49.9727 17.9023C50.2539 16.4258 50.6934 15.1133 51.291 13.9648C50.9277 14.457 50.3828 15.2949 49.6562 16.4785C48.9297 17.6504 48.4258 18.4473 48.1445 18.8691V18.8867C47.8164 19.3789 47.5117 19.625 47.2305 19.625C46.9492 19.6133 46.7969 19.4727 46.7734 19.2031C46.7734 18.9805 46.9375 18.6055 47.2656 18.0781C48.8594 15.5938 50.4883 12.4824 52.1523 8.74414C53.8281 4.99414 54.8184 2.39844 55.123 0.957031C55.2051 0.628906 55.5156 0.458984 56.0547 0.447266C56.2305 0.447266 56.4121 0.470703 56.5996 0.517578C57.0801 0.658203 57.3203 0.886719 57.3203 1.20312C57.3203 1.30859 57.2793 1.43164 57.1973 1.57227C55.1934 5.0293 53.9863 8.03516 53.5762 10.5898C54.4082 10.0977 55.2227 9.8457 56.0195 9.83398C56.3008 9.83398 56.5586 9.88086 56.793 9.97461C57.4609 10.2324 57.7949 10.748 57.7949 11.5215C57.7949 11.9902 57.502 13.0801 56.916 14.791C56.3418 16.4902 55.3867 18.4648 54.0508 20.7148C52.7266 22.9531 51.6133 24.0723 50.7109 24.0723ZM66.1094 11.5215C64.2344 11.8379 62.5996 13.0684 61.2051 15.2129C59.8457 17.2988 59.1309 19.3613 59.0605 21.4004C61.7441 17.8613 64.0938 14.5684 66.1094 11.5215ZM65.3008 10.0273L66.3379 10.168C66.502 10.168 66.6719 10.0742 66.8477 9.88672C67.0352 9.69922 67.2695 9.60547 67.5508 9.60547C67.8438 9.60547 68.0723 9.68164 68.2363 9.83398C68.4121 9.98633 68.5 10.1211 68.5 10.2383C68.5 10.3438 68.4414 10.5254 68.3242 10.7832C68.207 11.041 68.1367 11.2109 68.1133 11.293C66.5547 16.1797 65.7754 19.2969 65.7754 20.6445C65.7871 21.1133 65.8926 21.3535 66.0918 21.3652C66.8066 21.3652 67.9258 20.4277 69.4492 18.5527C70.4688 17.2988 71.125 16.3789 71.418 15.793C71.7227 15.207 71.9629 14.8965 72.1387 14.8613C72.1738 14.8613 72.2031 14.8555 72.2266 14.8438C72.4375 14.8672 72.5488 14.9902 72.5605 15.2129C72.5605 15.6348 72.0742 16.584 71.1016 18.0605C69.0273 21.2246 67.2344 22.8066 65.7227 22.8066C64.6328 22.8066 64.0879 22.0449 64.0879 20.5215C64.0879 19.7949 64.2344 18.8926 64.5273 17.8145C64.8203 16.7246 64.9961 16.0449 65.0547 15.7754C64.7852 16.127 63.8828 17.4043 62.3477 19.6074C60.8125 21.8105 59.7109 23.1113 59.043 23.5098C58.832 23.627 58.6504 23.6914 58.498 23.7031C57.8301 23.7031 57.3438 23.4395 57.0391 22.9121C56.8984 22.6543 56.8281 22.2852 56.8281 21.8047C56.8164 21.3125 57.1738 20.1875 57.9004 18.4297C59.0723 15.5938 60.4023 13.4082 61.8906 11.873C63.0625 10.6777 64.1992 10.0625 65.3008 10.0273ZM76.0762 9.41211L82.3867 9.27148C82.5156 9.27148 82.6562 9.38867 82.8086 9.62305C82.9609 9.8457 83.043 10.1504 83.0547 10.5371C83.043 10.7949 82.709 10.9297 82.0527 10.9414C80.1074 10.9883 77.752 11.2227 74.9863 11.6445C74.7871 12.2188 74.4648 13.0449 74.0195 14.123C72.0625 18.8574 71.084 22.1797 71.084 24.0898C71.084 25.0391 71.2656 25.9531 71.6289 26.832C72.2617 28.3086 73.2051 29.0469 74.459 29.0469C75.4316 29.0469 76.2461 28.7949 76.9023 28.291C77.5703 27.7988 78.3555 26.9844 79.2578 25.8477C79.5391 25.4844 79.832 25.3555 80.1367 25.4609C80.4297 25.5898 80.5762 25.8418 80.5762 26.2168C80.5762 27.2949 79.9551 28.1914 78.7129 28.9062C77.4707 29.6328 76.1348 29.9961 74.7051 29.9961C73.2871 29.9961 72.0566 29.4746 71.0137 28.4316C69.9824 27.3887 69.4668 26 69.4668 24.2656C69.4668 23.1055 69.6133 21.8633 69.9062 20.5391C70.1992 19.2148 70.7324 17.5684 71.5059 15.5996C72.2793 13.6191 72.7832 12.3008 73.0176 11.6445C70.5918 11.6445 69.2383 11.6152 68.957 11.5566C68.0898 11.3691 67.6504 11 67.6387 10.4492C67.6504 10.2734 67.7852 10.1621 68.043 10.1152L73.7559 9.64062L77.5176 3.3125C77.9512 2.58594 78.3438 2.22266 78.6953 2.22266C78.8359 2.22266 79 2.24609 79.1875 2.29297C79.8789 2.44531 80.2246 2.69727 80.2246 3.04883C80.2246 3.38867 79.873 3.91602 79.1699 4.63086C78.4668 5.3457 78.0332 5.80273 77.8691 6.00195C77.3184 6.68164 76.7207 7.81836 76.0762 9.41211ZM85.4629 9.41211L91.7734 9.27148C91.9023 9.27148 92.043 9.38867 92.1953 9.62305C92.3477 9.8457 92.4297 10.1504 92.4414 10.5371C92.4297 10.7949 92.0957 10.9297 91.4395 10.9414C89.4941 10.9883 87.1387 11.2227 84.373 11.6445C84.1738 12.2188 83.8516 13.0449 83.4062 14.123C81.4492 18.8574 80.4707 22.1797 80.4707 24.0898C80.4707 25.0391 80.6523 25.9531 81.0156 26.832C81.6484 28.3086 82.5918 29.0469 83.8457 29.0469C84.8184 29.0469 85.6328 28.7949 86.2891 28.291C86.957 27.7988 87.7422 26.9844 88.6445 25.8477C88.9258 25.4844 89.2188 25.3555 89.5234 25.4609C89.8164 25.5898 89.9629 25.8418 89.9629 26.2168C89.9629 27.2949 89.3418 28.1914 88.0996 28.9062C86.8574 29.6328 85.5215 29.9961 84.0918 29.9961C82.6738 29.9961 81.4434 29.4746 80.4004 28.4316C79.3691 27.3887 78.8535 26 78.8535 24.2656C78.8535 23.1055 79 21.8633 79.293 20.5391C79.5859 19.2148 80.1191 17.5684 80.8926 15.5996C81.666 13.6191 82.1699 12.3008 82.4043 11.6445C79.9785 11.6445 78.625 11.6152 78.3438 11.5566C77.4766 11.3691 77.0371 11 77.0254 10.4492C77.0371 10.2734 77.1719 10.1621 77.4297 10.1152L83.1426 9.64062L86.9043 3.3125C87.3379 2.58594 87.7305 2.22266 88.082 2.22266C88.2227 2.22266 88.3867 2.24609 88.5742 2.29297C89.2656 2.44531 89.6113 2.69727 89.6113 3.04883C89.6113 3.38867 89.2598 3.91602 88.5566 4.63086C87.8535 5.3457 87.4199 5.80273 87.2559 6.00195C86.7051 6.68164 86.1074 7.81836 85.4629 9.41211ZM94.5332 6.79297C94.4746 6.76953 94.3281 6.67578 94.0938 6.51172C93.8125 6.3125 93.6719 6.16602 93.6719 6.07227C93.6719 5.75586 94.1113 5.01172 94.9902 3.83984C95.8691 2.66797 96.3672 1.96484 96.4844 1.73047C96.7773 1.4375 97.1816 1.58398 97.6973 2.16992C98.1074 2.66211 98.2363 3.06055 98.084 3.36523C98.002 3.66992 97.5039 4.31445 96.5898 5.29883C95.6758 6.2832 94.9902 6.78125 94.5332 6.79297ZM98.7344 17.832C98.3008 19.0508 97.4395 20.293 96.1504 21.5586C94.627 23.0586 93.3496 23.8086 92.3184 23.8086C90.9238 23.8086 90.0508 23.0176 89.6992 21.4355C89.5938 20.9551 89.541 20.4336 89.541 19.8711C89.5293 18.0547 89.875 15.9512 90.5781 13.5605C91.457 10.5371 92.2891 9.02539 93.0742 9.02539C93.4609 9.02539 93.7422 9.11914 93.918 9.30664C94.1055 9.48242 94.1992 9.61133 94.1992 9.69336C94.1992 10.0684 93.8184 10.9941 93.0566 12.4707C92.2949 13.9355 91.8203 15.002 91.6328 15.6699C91.457 16.3262 91.3223 17.1875 91.2285 18.2539C91.1465 19.3086 91.1055 19.9883 91.1055 20.293C91.1055 21.3242 91.2285 21.9688 91.4746 22.2266C91.7324 22.4844 92.043 22.6191 92.4062 22.6309C93.4375 22.6309 94.668 21.7344 96.0977 19.9414C96.7891 19.0625 97.3281 18.2539 97.7148 17.5156C97.8906 17.2344 98.0723 17.0938 98.2598 17.0938C98.5762 17.1406 98.752 17.2988 98.7871 17.5684C98.7871 17.6035 98.7695 17.6914 98.7344 17.832Z" fill="black"/>
</svg>
